# xmcd
#
# Track frame offsets: 
#        150
#        13954
#        24407
#        37404
#        47472
#        59854
#        78492
#        91400
#        103992
#        117837
#        130712
#        144792
#
# Disc length: 2084 seconds
#
# Revision: 0
# Processed by: cddbd v1.5.2PL0 Copyright (c) Steve Scherf et al.
# Submitted via: ExactAudioCopyFreeDBPlugin 1.0
#
DISCID=a508220c
DTITLE=Gravity - Roadman
DYEAR=2008
DGENRE=Country
TTITLE0=Travelers
TTITLE1=Georgia On A Fast Train
TTITLE2=Roadman
TTITLE3=Molly And Tenbrooks
TTITLE4=When My Face Is Covered Over
TTITLE5=If I Should Fall Behind
TTITLE6=Way Past Gone
TTITLE7=Say When
TTITLE8=This World Is Not My Home
TTITLE9=Backroads And Blue Skies
TTITLE10=Number 9 Train
TTITLE11=Thanks A Lot
EXTD=
EXTT0=
EXTT1=
EXTT2=
EXTT3=
EXTT4=
EXTT5=
EXTT6=
EXTT7=
EXTT8=
EXTT9=
EXTT10=
EXTT11=
PLAYORDER=
